<svg width="77" height="77" viewBox="0 0 77 77" fill="none" xmlns="http://www.w3.org/2000/svg">
<path d="M11.1445 1.79399e-05C10.7801 0.00159273 10.4312 0.147763 10.1745 0.406416C9.91776 0.665069 9.77423 1.01505 9.7754 1.37946V9.77281H1.36909C1.18843 9.77359 1.00969 9.80997 0.843094 9.87986C0.676497 9.94975 0.525306 10.0518 0.398162 10.1801C0.271018 10.3085 0.170413 10.4606 0.102097 10.6279C0.0337817 10.7951 -0.000905594 10.9742 1.79687e-05 11.1549C0.00158482 11.5175 0.146329 11.8648 0.40274 12.1212C0.659152 12.3776 1.00647 12.5224 1.36909 12.5239H9.7754V28.0141H1.36909C1.00647 28.0157 0.65915 28.1605 0.402739 28.4169C0.146327 28.6733 0.0015835 29.0206 1.79687e-05 29.3832C-0.000904933 29.5639 0.0337829 29.743 0.102099 29.9102C0.170415 30.0775 0.27102 30.2296 0.398164 30.3579C0.525308 30.4863 0.676499 30.5883 0.843095 30.6582C1.00969 30.7281 1.18843 30.7645 1.36909 30.7653H9.7754V46.2451H1.36909C1.00647 46.2467 0.65915 46.3914 0.402739 46.6478C0.146327 46.9043 0.0015835 47.2516 1.79687e-05 47.6142C-0.00115613 47.9786 0.142377 48.3286 0.399084 48.5872C0.655791 48.8459 1.00467 48.9921 1.36909 48.9936H9.7754V64.4735H1.36909C1.00602 64.4751 0.658313 64.6202 0.401828 64.8771C0.145342 65.1341 0.000900456 65.4821 1.79687e-05 65.8452C-0.00115613 66.2096 0.142377 66.5595 0.399084 66.8182C0.655791 67.0769 1.00467 67.223 1.36909 67.2246H9.7754V75.6283C9.77628 75.9914 9.92073 76.3394 10.1772 76.5963C10.4337 76.8533 10.7814 76.9984 11.1445 77C11.3254 77.0009 11.5046 76.9661 11.6721 76.8977C11.8395 76.8292 11.9917 76.7283 12.1201 76.6009C12.2485 76.4735 12.3505 76.322 12.4202 76.1551C12.49 75.9882 12.5261 75.8092 12.5265 75.6283V67.2246H28.0038V75.6283C28.0042 75.8092 28.0403 75.9882 28.1101 76.1551C28.1798 76.322 28.2818 76.4735 28.4102 76.6009C28.5386 76.7283 28.6908 76.8292 28.8582 76.8977C29.0257 76.9661 29.2049 77.0009 29.3858 77C29.7489 76.9984 30.0966 76.8533 30.3531 76.5963C30.6096 76.3394 30.754 75.9914 30.7549 75.6283V67.2246H46.2347V75.6283C46.2352 75.809 46.2712 75.9878 46.3408 76.1545C46.4104 76.3212 46.5121 76.4726 46.6402 76.6C46.7683 76.7274 46.9203 76.8283 47.0874 76.8969C47.2545 76.9655 47.4335 77.0006 47.6142 77C47.9777 76.9991 48.3261 76.8543 48.5831 76.5973C48.8402 76.3402 48.985 75.9918 48.9858 75.6283V67.2246H64.4631V75.6283C64.4636 75.8092 64.4997 75.9882 64.5694 76.1551C64.6391 76.322 64.7411 76.4735 64.8695 76.6009C64.9979 76.7283 65.1502 76.8292 65.3176 76.8977C65.485 76.9661 65.6643 77.0009 65.8451 77C66.2082 76.9984 66.5559 76.8533 66.8124 76.5963C67.0689 76.3394 67.2133 75.9914 67.2142 75.6283V67.2246H75.6205C75.8018 67.2252 75.9815 67.1899 76.1491 67.1208C76.3167 67.0517 76.469 66.9501 76.5972 66.8219C76.7255 66.6937 76.827 66.5414 76.8962 66.3737C76.9653 66.2061 77.0006 66.0265 77 65.8452C76.9995 65.6645 76.9635 65.4857 76.8939 65.319C76.8243 65.1522 76.7226 65.0009 76.5945 64.8735C76.4664 64.7461 76.3144 64.6452 76.1473 64.5766C75.9802 64.5079 75.8012 64.4729 75.6205 64.4735H67.2142V48.9936H75.6205C75.8018 48.9942 75.9815 48.9589 76.1491 48.8898C76.3167 48.8207 76.469 48.7191 76.5972 48.5909C76.7255 48.4627 76.827 48.3104 76.8962 48.1428C76.9653 47.9751 77.0006 47.7955 77 47.6142C76.9984 47.2498 76.8522 46.9009 76.5936 46.6442C76.3349 46.3875 75.9849 46.2439 75.6205 46.2451H67.2142V30.7653H75.6205C75.8021 30.7658 75.9819 30.7305 76.1497 30.6612C76.3175 30.5919 76.4699 30.4901 76.5982 30.3616C76.7264 30.2331 76.8279 30.0805 76.8969 29.9126C76.9659 29.7447 77.0009 29.5648 77 29.3832C76.9984 29.0188 76.8522 28.6699 76.5936 28.4132C76.3349 28.1565 75.9849 28.013 75.6205 28.0141H67.2142V12.5239H75.6205C75.9849 12.5251 76.3349 12.3816 76.5936 12.1249C76.8522 11.8682 76.9984 11.5193 77 11.1549C77.0009 10.9733 76.9659 10.7934 76.8969 10.6255C76.828 10.4575 76.7264 10.3049 76.5982 10.1765C76.4699 10.048 76.3175 9.94615 76.1497 9.87687C75.9819 9.80759 75.8021 9.77223 75.6205 9.77281H67.2142V1.37946C67.2154 1.01505 67.0719 0.665069 66.8152 0.406416C66.5584 0.147763 66.2096 0.00159273 65.8451 1.79399e-05C65.6636 -0.000908675 65.4837 0.0341202 65.3158 0.103084C65.1478 0.172047 64.9952 0.27358 64.8668 0.401824C64.7383 0.530068 64.6364 0.682485 64.5672 0.850281C64.4979 1.01808 64.4625 1.19793 64.4631 1.37946V9.77281H48.9858V1.37946C48.9864 1.1988 48.9514 1.0198 48.8828 0.852683C48.8141 0.685566 48.7132 0.533611 48.5859 0.405503C48.4585 0.277396 48.3071 0.175647 48.1404 0.106071C47.9736 0.0364961 47.7948 0.000458475 47.6142 1.79399e-05C47.4329 -0.000566143 47.2532 0.0347155 47.0856 0.103832C46.918 0.172949 46.7657 0.274536 46.6375 0.402746C46.5093 0.530956 46.4077 0.683257 46.3386 0.850883C46.2694 1.01851 46.2342 1.19815 46.2347 1.37946V9.77281H30.7549V1.37946C30.7561 1.01505 30.6125 0.665071 30.3558 0.406418C30.0991 0.147765 29.7502 0.00159406 29.3858 1.79399e-05C29.2043 -0.000909339 29.0244 0.034119 28.8564 0.103082C28.6885 0.172045 28.5359 0.273578 28.4074 0.401822C28.2789 0.530067 28.1771 0.682484 28.1078 0.85028C28.0386 1.01808 28.0032 1.19793 28.0038 1.37946V9.77281H12.5265V1.37946C12.5271 1.19793 12.4917 1.01808 12.4225 0.850281C12.3532 0.682485 12.2514 0.530068 12.1229 0.401824C11.9944 0.27358 11.8418 0.172047 11.6739 0.103084C11.5059 0.0341202 11.326 -0.000908675 11.1445 1.79399e-05ZM12.5265 12.5239H28.0038V28.0141H12.5265V12.5239ZM30.7549 12.5239H46.2347V28.0141H30.7549V12.5239ZM48.9858 12.5239H64.4631V28.0141H48.9858V12.5239ZM12.5265 30.7653H28.0038V46.2451H12.5265V30.7653ZM30.7549 30.7653H46.2347V46.2451H30.7549V30.7653ZM48.9858 30.7653H64.4631V46.2451H48.9858V30.7653ZM12.5265 48.9936H28.0038V64.4735H12.5265V48.9936ZM30.7549 48.9936H46.2347V64.4735H30.7549V48.9936ZM48.9858 48.9936H64.4631V64.4735H48.9858V48.9936Z" fill="#3E3A3A"/>
</svg>
