<svg width="90" height="91" viewBox="0 0 90 91" fill="none" xmlns="http://www.w3.org/2000/svg">
<path d="M42.67 75.88H42.6697C36.1062 75.876 29.6913 73.926 24.2359 70.2766C18.7805 66.6272 14.5296 61.4422 12.0206 55.3772C9.51167 49.3122 8.8573 42.6394 10.1402 36.2025C11.4232 29.7656 14.5858 23.8536 19.2283 19.214C23.8708 14.5743 29.7848 11.4153 36.2224 10.1363C42.6601 8.85727 49.3325 9.51573 55.396 12.0284C61.4595 14.5411 66.6418 18.7951 70.2879 24.2528C73.934 29.7104 75.88 36.1265 75.88 42.69C75.88 43.8835 76.3541 45.0281 77.198 45.872C78.042 46.7159 79.1865 47.19 80.38 47.19C81.5735 47.19 82.7181 46.7159 83.562 45.872C84.4059 45.0281 84.88 43.8835 84.88 42.69C84.88 34.3465 82.4061 26.1902 77.7711 19.2526C73.1361 12.3149 66.5481 6.90727 58.84 3.71343C51.1319 0.51959 42.6499 -0.317066 34.4664 1.30924C26.2829 2.93555 18.7653 6.9518 12.8642 12.8502C6.96301 18.7486 2.94324 26.2643 1.3131 34.447C-0.317042 42.6298 0.515641 51.1122 3.70587 58.8217C6.8961 66.5313 12.3006 73.1218 19.2361 77.7601C26.1716 82.3983 34.3265 84.8761 42.67 84.88V75.88ZM42.67 75.88C43.8635 75.88 45.0081 76.3541 45.852 77.198C46.6959 78.0419 47.17 79.1865 47.17 80.38C47.17 81.5735 46.6959 82.7181 45.852 83.562C45.0081 84.4059 43.8636 84.88 42.6702 84.88L42.67 75.88Z" fill="#3E3A3A" stroke="white"/>
<path d="M42.5 41.47V41.97H43H55.5C56.163 41.97 56.7989 42.2334 57.2678 42.7022C57.7366 43.1711 58 43.807 58 44.47C58 45.133 57.7366 45.7689 57.2678 46.2378C56.7989 46.7066 56.163 46.97 55.5 46.97H40C39.337 46.97 38.7011 46.7066 38.2322 46.2378C37.7634 45.7689 37.5 45.133 37.5 44.47V20C37.5 19.337 37.7634 18.7011 38.2322 18.2322C38.7011 17.7634 39.337 17.5 40 17.5C40.663 17.5 41.2989 17.7634 41.7678 18.2322C42.2366 18.7011 42.5 19.337 42.5 20V41.47Z" fill="#3E3A3A" stroke="white"/>
<path d="M69.1334 54.496L69.1334 54.496L69.1374 54.4955C69.8777 54.3947 70.6238 54.3428 71.3709 54.34C74.8535 54.3402 78.2579 55.373 81.1536 57.3078C84.0495 59.2429 86.3067 61.9932 87.6395 65.211C88.9724 68.4288 89.3211 71.9696 88.6416 75.3856C87.9622 78.8016 86.285 81.9394 83.8222 84.4022C81.3594 86.865 78.2216 88.5422 74.8055 89.2217C71.3895 89.9011 67.8488 89.5524 64.631 88.2195C61.4131 86.8867 58.6628 84.6296 56.7278 81.7336C54.793 78.8379 53.7602 75.4335 53.76 71.9508C53.7625 71.2038 53.8144 70.4578 53.9154 69.7177L53.9154 69.7177L53.916 69.7134C54.4099 65.8501 56.172 62.26 58.926 59.506C61.68 56.752 65.2701 54.9899 69.1334 54.496ZM58.76 71.9917L58.76 71.9921C58.7738 75.3283 60.108 78.5233 62.471 80.8785C64.834 83.2336 68.0334 84.5573 71.3696 84.56H71.37C73.8658 84.56 76.3055 83.8194 78.3801 82.4319C80.4547 81.0445 82.0709 79.0726 83.0241 76.766C83.9773 74.4594 84.2245 71.9218 83.7346 69.4746C83.2446 67.0273 82.0395 64.7805 80.2718 63.0187C78.5041 61.2568 76.2533 60.0591 73.8045 59.5773C71.3556 59.0954 68.8189 59.3511 66.5154 60.3119C64.212 61.2727 62.2455 62.8955 60.8649 64.9746C59.4843 67.0538 58.7518 69.4959 58.76 71.9917Z" fill="#3E3A3A" stroke="white"/>
<path d="M73.87 68.99V69.49H74.37H76.96C77.6231 69.49 78.259 69.7534 78.7278 70.2222C79.1966 70.6911 79.46 71.327 79.46 71.99C79.46 72.6531 79.1966 73.2889 78.7278 73.7578C78.259 74.2266 77.6231 74.49 76.96 74.49H74.37H73.87V74.99V77.58C73.87 78.2431 73.6066 78.8789 73.1378 79.3478C72.6689 79.8166 72.0331 80.08 71.37 80.08C70.707 80.08 70.0711 79.8166 69.6023 79.3478C69.1334 78.8789 68.87 78.243 68.87 77.58V74.99V74.49H68.37H65.77C65.107 74.49 64.4711 74.2266 64.0023 73.7578C63.5334 73.2889 63.27 72.6531 63.27 71.99C63.27 71.327 63.5334 70.6911 64.0023 70.2222C64.4711 69.7534 65.107 69.49 65.77 69.49H68.37H68.87V68.99V66.39C68.87 65.727 69.1334 65.0911 69.6023 64.6222C70.0711 64.1534 70.707 63.89 71.37 63.89C72.0331 63.89 72.6689 64.1534 73.1378 64.6222C73.6066 65.0911 73.87 65.727 73.87 66.39V68.99Z" fill="#3E3A3A" stroke="white"/>
</svg>
