<svg width="36" height="29" viewBox="0 0 36 29" fill="none" xmlns="http://www.w3.org/2000/svg">
<path d="M7.53296 5.79817C7.14464 6.18649 7.27905 6.50129 7.83276 6.50129H25.0025C31.0774 6.50129 36.0014 11.4255 36.0014 17.5013C36.0014 23.579 31.083 28.5013 25.0025 28.5013H15.9936C14.8934 28.5013 14.0014 27.6136 14.0014 26.5013C14.0014 25.3967 14.9017 24.5013 15.9936 24.5013H25.0025C28.8731 24.5013 32.0014 21.3706 32.0014 17.5013C32.0014 13.6346 28.8682 10.5013 25.0025 10.5013H7.83276C7.27886 10.5013 7.15346 10.8249 7.53296 11.2044L9.91836 13.5898C10.6979 14.3694 10.7021 15.629 9.91562 16.4155C9.13458 17.1966 7.87486 17.2032 7.08462 16.4129L0.589769 9.91808C-0.192701 9.13561 -0.200469 7.87475 0.589769 7.08451L7.08462 0.589654C7.86709 -0.192816 9.12913 -0.199415 9.91562 0.587079C10.6967 1.36813 10.6946 2.63649 9.91836 3.41277L7.53296 5.79817Z" fill="#3E3A3A"/>
</svg>
